<svg id="svg" version="1.1" xmlns="http://www.w3.org/2000/svg" xmlns:xlink="http://www.w3.org/1999/xlink" width="400" height="467.14140386571717" viewBox="0, 0, 400,467.14140386571717"><g id="svgg"><path id="path0" d="M33.600 52.200 L 33.600 104.400 16.800 104.400 L 0.000 104.400 0.000 190.100 C 0.001 277.873,0.019 278.974,1.634 290.600 C 4.516 311.343,14.870 341.099,23.010 352.029 C 23.572 352.783,25.829 356.100,28.027 359.400 C 36.767 372.527,39.381 375.716,51.000 387.427 C 60.859 397.364,65.445 401.493,71.260 405.666 C 72.282 406.400,75.522 408.747,78.460 410.883 C 84.124 415.001,90.503 419.487,91.812 420.273 C 106.192 428.906,112.134 432.124,123.000 437.163 C 127.840 439.408,132.858 441.785,134.151 442.446 C 140.650 445.767,158.076 452.121,174.200 457.049 C 188.552 461.436,211.983 466.800,216.793 466.800 C 217.784 466.800,218.067 433.623,217.087 432.384 C 216.798 432.018,214.971 431.466,212.600 431.027 C 210.400 430.620,205.180 429.418,201.000 428.357 C 178.884 422.739,170.558 419.837,143.600 408.349 C 140.115 406.864,127.515 400.595,123.946 398.569 C 122.158 397.555,119.324 396.006,117.648 395.127 C 115.971 394.249,114.240 393.196,113.800 392.789 C 113.360 392.382,111.107 390.823,108.793 389.324 C 94.567 380.114,87.618 374.513,76.185 363.044 C 68.237 355.071,59.958 345.520,59.242 343.499 C 59.155 343.253,58.056 341.511,56.799 339.626 C 54.246 335.798,50.618 329.606,48.737 325.867 C 48.055 324.510,47.348 323.304,47.166 323.187 C 46.221 322.580,40.164 305.761,38.455 299.000 C 34.376 282.857,34.418 284.001,34.408 188.700 L 34.400 105.200 125.600 105.200 C 186.133 105.200,216.800 105.065,216.800 104.800 C 216.800 104.534,247.600 104.400,308.400 104.400 L 400.000 104.400 400.000 52.200 L 400.000 0.000 216.800 0.000 L 33.600 0.000 33.600 52.200 M210.283 29.519 C 210.753 29.818,215.763 49.570,215.449 49.884 C 215.311 50.022,176.920 50.756,168.174 50.788 L 164.948 50.800 162.598 41.009 C 161.306 35.625,160.353 31.114,160.480 30.986 C 160.818 30.649,174.320 29.997,188.400 29.639 C 205.863 29.194,209.738 29.173,210.283 29.519 M225.314 30.048 C 231.379 30.547,236.734 31.360,237.175 31.849 C 237.629 32.353,241.747 49.186,241.481 49.452 C 241.359 49.574,235.819 49.702,229.169 49.737 L 217.078 49.800 214.564 39.821 C 213.182 34.333,212.141 29.695,212.253 29.515 C 212.465 29.170,216.797 29.347,225.314 30.048 M161.157 40.652 C 162.517 46.070,163.567 50.567,163.490 50.644 C 163.328 50.806,113.117 51.662,112.994 51.505 C 112.706 51.135,109.069 35.597,109.233 35.433 C 109.761 34.906,136.028 32.362,152.400 31.253 C 155.150 31.067,157.689 30.888,158.042 30.857 C 158.556 30.811,159.176 32.763,161.157 40.652 M242.833 32.808 C 253.508 35.534,262.030 40.447,266.575 46.495 L 268.600 49.190 315.105 49.195 L 361.610 49.200 367.605 52.203 C 370.902 53.854,373.600 55.301,373.600 55.418 C 373.600 55.535,349.911 55.609,320.958 55.584 L 268.316 55.537 267.306 57.069 C 263.624 62.646,256.916 67.178,247.864 70.205 C 243.835 71.553,238.800 72.870,238.800 72.577 C 238.800 72.493,239.790 68.504,241.000 63.712 C 242.210 58.920,243.200 54.956,243.200 54.901 C 243.200 54.847,248.847 54.921,255.748 55.065 L 268.296 55.327 268.796 53.812 C 269.178 52.656,269.189 51.941,268.845 50.792 L 268.394 49.287 255.828 49.503 L 243.263 49.719 242.852 48.159 C 242.626 47.302,241.704 43.630,240.803 40.000 C 239.902 36.370,239.071 33.085,238.956 32.700 C 238.691 31.815,238.973 31.823,242.833 32.808 M107.808 36.500 C 107.931 36.995,108.804 40.550,109.747 44.400 L 111.461 51.400 102.831 51.649 C 98.084 51.786,88.530 51.962,81.600 52.041 C 70.893 52.161,70.217 52.200,77.100 52.300 C 83.995 52.399,85.200 52.506,85.200 53.019 C 85.200 54.016,82.714 63.772,82.360 64.165 C 81.973 64.593,76.427 63.211,71.932 61.566 C 48.844 53.119,59.749 43.085,98.800 36.845 C 101.550 36.406,104.250 35.970,104.800 35.877 C 107.100 35.490,107.582 35.589,107.808 36.500 M137.268 53.535 C 137.416 53.681,136.516 57.828,135.268 62.752 L 133.000 71.703 129.200 71.438 C 118.080 70.664,100.155 68.188,86.465 65.537 C 83.502 64.963,83.579 65.731,85.672 57.646 L 86.954 52.691 111.977 52.980 C 125.740 53.139,137.121 53.389,137.268 53.535 M166.400 53.823 C 179.050 53.961,189.455 54.127,189.523 54.193 C 189.653 54.319,184.790 74.495,184.569 74.746 C 184.207 75.159,135.026 72.368,134.579 71.910 C 134.464 71.792,138.579 54.754,138.965 53.746 C 139.147 53.273,139.652 53.189,141.299 53.358 C 142.454 53.477,153.750 53.686,166.400 53.823 M223.300 54.651 C 236.520 54.827,241.597 55.020,241.590 55.347 C 241.576 55.950,237.319 72.818,237.140 72.980 C 236.788 73.297,227.495 74.438,221.946 74.845 C 215.901 75.289,186.660 75.193,186.195 74.729 C 185.861 74.394,190.862 54.647,191.367 54.312 C 191.605 54.153,194.770 54.110,198.400 54.216 C 202.030 54.322,213.235 54.517,223.300 54.651 " stroke="none" fill="#f37353" fill-rule="evenodd"></path><path id="path1" d="M177.400 30.028 C 163.408 30.561,160.400 30.811,160.400 31.446 C 160.400 32.275,164.868 50.151,165.156 50.474 C 165.380 50.726,215.253 50.081,215.510 49.823 C 215.573 49.760,214.496 45.185,213.118 39.655 L 210.613 29.600 198.006 29.662 C 191.073 29.696,181.800 29.861,177.400 30.028 M214.605 39.638 L 217.132 49.800 229.266 49.655 C 235.940 49.575,241.470 49.445,241.555 49.366 C 241.783 49.156,237.532 32.266,237.139 31.823 C 236.538 31.143,227.154 30.041,219.539 29.756 L 212.077 29.476 214.605 39.638 M152.400 31.253 C 136.028 32.362,109.761 34.906,109.233 35.433 C 108.984 35.682,112.787 51.152,113.145 51.347 C 113.383 51.477,163.321 50.796,163.467 50.661 C 163.884 50.276,158.530 30.810,158.021 30.857 C 157.679 30.888,155.150 31.067,152.400 31.253 M238.956 32.700 C 239.071 33.085,239.902 36.370,240.803 40.000 C 241.704 43.630,242.624 47.295,242.848 48.145 L 243.255 49.691 255.797 49.397 L 268.339 49.103 268.817 50.700 C 269.191 51.947,269.189 52.623,268.807 53.779 L 268.318 55.260 255.759 55.130 C 248.851 55.058,243.196 55.000,243.192 55.000 C 242.814 55.000,239.051 72.233,239.410 72.320 C 240.096 72.487,245.792 71.001,249.299 69.741 C 257.408 66.829,263.861 62.288,267.306 57.069 L 268.317 55.537 320.758 55.584 C 350.942 55.611,373.200 55.480,373.200 55.276 C 373.200 55.082,370.508 53.635,367.218 52.061 L 361.236 49.200 314.918 49.195 L 268.600 49.190 266.575 46.495 C 262.030 40.447,253.508 35.534,242.833 32.808 C 238.973 31.823,238.691 31.815,238.956 32.700 M104.800 35.877 C 104.250 35.970,101.550 36.406,98.800 36.845 C 59.764 43.083,48.853 53.123,71.932 61.566 C 76.427 63.211,81.973 64.593,82.360 64.165 C 82.714 63.772,85.200 54.016,85.200 53.019 C 85.200 52.505,83.978 52.400,76.900 52.308 C 71.565 52.239,76.209 52.075,89.900 51.851 C 107.314 51.566,111.200 51.405,111.200 50.964 C 111.200 50.489,108.291 38.108,107.754 36.300 C 107.549 35.610,106.920 35.520,104.800 35.877 M85.672 57.647 C 83.579 65.730,83.502 64.962,86.465 65.541 C 99.472 68.082,125.751 71.600,131.723 71.600 L 133.040 71.600 135.259 62.700 C 136.480 57.805,137.371 53.681,137.239 53.536 C 137.108 53.391,125.740 53.142,111.977 52.983 L 86.953 52.694 85.672 57.647 M139.019 53.650 C 138.913 53.952,137.912 57.890,136.796 62.400 C 135.679 66.910,134.680 70.890,134.574 71.244 C 134.335 72.043,134.962 72.112,152.200 73.191 C 168.833 74.232,184.124 74.846,184.439 74.485 C 184.637 74.259,189.600 54.816,189.600 54.267 C 189.600 54.188,178.935 53.996,165.900 53.841 C 152.865 53.686,141.528 53.456,140.707 53.330 C 139.639 53.165,139.158 53.257,139.019 53.650 M191.021 54.846 C 190.621 55.978,186.052 74.585,186.150 74.683 C 187.811 76.345,235.298 74.457,237.047 72.660 C 237.507 72.188,241.824 55.285,241.552 55.025 C 241.014 54.513,191.201 54.336,191.021 54.846 M301.600 132.820 C 269.339 136.839,245.087 163.949,245.081 196.000 C 245.074 227.331,268.801 254.709,299.701 259.026 L 301.603 259.291 300.404 260.657 C 298.966 262.294,297.806 264.524,297.468 266.300 L 297.220 267.600 308.610 267.600 C 319.192 267.600,320.000 267.550,319.996 266.900 C 319.990 265.723,318.022 261.873,316.757 260.562 L 315.563 259.323 318.467 258.844 C 363.191 251.458,386.263 201.455,362.740 162.893 C 350.261 142.437,324.828 129.927,301.600 132.820 M64.000 203.100 C 64.001 273.087,64.055 275.839,65.617 284.800 C 66.534 290.059,69.000 299.323,69.813 300.564 C 70.115 301.024,70.357 301.490,70.352 301.600 C 70.283 303.205,78.296 319.295,81.607 324.200 C 91.379 338.676,105.592 352.141,123.000 363.417 C 126.520 365.697,129.850 367.905,130.400 368.325 C 137.347 373.622,165.526 386.438,182.000 391.794 C 183.870 392.402,185.571 393.057,185.780 393.250 C 185.989 393.442,186.304 393.600,186.480 393.600 C 186.656 393.600,186.800 335.370,186.800 264.200 L 186.800 134.800 125.400 134.800 L 64.000 134.800 64.000 203.100 M320.000 138.772 C 356.441 146.155,377.164 185.371,362.382 218.974 C 339.793 270.326,265.606 264.264,251.826 209.941 C 241.434 168.976,278.434 130.350,320.000 138.772 M122.231 169.929 L 125.062 171.255 126.431 170.472 C 140.969 162.162,157.215 177.881,149.784 193.068 L 148.763 195.154 149.786 197.173 C 156.942 211.294,143.135 226.337,128.298 220.585 C 127.631 220.326,127.601 222.075,127.698 255.256 L 127.800 290.200 136.500 290.308 L 145.200 290.416 145.200 293.408 L 145.200 296.400 139.600 296.400 L 134.000 296.400 134.000 299.000 L 134.000 301.600 136.800 301.600 L 139.600 301.600 139.600 304.582 L 139.600 307.563 136.900 307.682 L 134.200 307.800 134.081 310.300 L 133.962 312.800 139.581 312.800 L 145.200 312.800 145.200 315.800 L 145.200 318.800 136.400 318.800 L 127.600 318.800 127.600 320.469 C 127.600 322.642,126.732 323.600,124.761 323.600 C 121.782 323.600,122.000 327.740,122.000 271.129 L 122.000 220.435 120.448 220.983 C 106.369 225.950,93.120 210.590,99.967 197.239 L 101.075 195.078 99.899 192.725 C 92.763 178.445,107.749 163.147,122.231 169.929 M112.600 174.354 C 105.764 176.149,101.735 184.658,105.191 190.000 C 105.592 190.620,120.000 176.774,120.000 175.768 C 120.000 174.668,115.024 173.717,112.600 174.354 M131.894 174.545 C 130.845 174.839,129.863 175.204,129.711 175.356 C 129.559 175.508,132.795 178.993,136.903 183.100 L 144.371 190.568 145.047 188.984 C 148.445 181.024,140.374 172.164,131.894 174.545 M117.096 187.104 C 112.973 191.231,109.600 194.788,109.600 195.008 C 109.600 196.305,124.781 210.541,125.482 209.902 C 125.877 209.541,129.434 206.082,133.386 202.213 L 140.572 195.180 132.790 187.390 C 128.510 183.106,124.914 179.600,124.800 179.600 C 124.686 179.600,121.219 182.977,117.096 187.104 M104.737 201.100 C 101.315 209.590,110.692 218.798,119.134 215.238 L 120.467 214.675 113.138 207.338 C 105.153 199.344,105.377 199.511,104.737 201.100 M136.721 207.350 L 129.643 214.691 130.721 215.184 C 138.845 218.894,148.171 210.109,145.247 201.500 C 144.502 199.305,144.430 199.355,136.721 207.350 M297.200 310.400 L 297.200 351.200 308.600 351.200 L 320.000 351.200 320.000 310.400 L 320.000 269.600 308.600 269.600 L 297.200 269.600 297.200 310.400 M297.556 353.500 C 296.575 360.145,306.500 365.874,313.415 362.654 C 316.738 361.107,320.846 355.292,319.806 353.609 C 319.511 353.132,297.626 353.024,297.556 353.500 " stroke="none" fill="#3c3c3c" fill-rule="evenodd"></path><path id="path2" d="M216.800 268.351 C 216.800 400.879,216.897 431.983,217.313 432.328 C 218.032 432.925,232.229 429.852,243.918 426.570 C 252.773 424.083,270.293 418.252,270.800 417.622 C 270.910 417.486,274.150 416.143,278.000 414.638 C 293.112 408.731,317.011 396.975,320.677 393.646 C 321.075 393.284,323.380 391.751,325.800 390.238 C 344.780 378.372,363.274 361.541,373.749 346.600 C 374.983 344.840,376.256 343.123,376.578 342.784 C 383.980 334.995,394.772 308.996,397.989 291.200 C 400.063 279.727,400.000 282.895,400.000 190.702 L 400.000 104.800 308.400 104.800 L 216.800 104.800 216.800 268.351 M321.800 133.568 C 359.222 142.268,380.744 179.453,369.345 215.715 C 362.652 237.007,342.964 254.485,321.000 258.632 C 319.020 259.006,317.159 259.377,316.865 259.457 C 316.484 259.560,316.634 259.962,317.384 260.854 C 318.854 262.600,319.900 264.772,320.062 266.410 L 320.200 267.800 308.826 267.906 C 302.571 267.965,297.305 267.865,297.125 267.685 C 296.565 267.125,297.951 263.325,299.416 261.406 C 300.331 260.208,300.637 259.529,300.305 259.433 C 300.027 259.353,298.598 259.086,297.129 258.839 C 280.602 256.064,264.375 245.158,254.817 230.400 C 236.066 201.448,244.493 161.808,273.407 142.961 C 281.729 137.537,288.888 134.802,300.400 132.649 C 303.288 132.108,318.296 132.753,321.800 133.568 M300.834 138.406 C 254.973 144.838,234.504 199.315,264.798 234.314 C 285.858 258.645,324.145 260.801,347.903 238.994 C 377.774 211.577,370.959 162.281,334.800 144.212 C 324.665 139.148,311.541 136.904,300.834 138.406 M340.434 163.040 C 341.015 163.741,277.050 228.000,275.772 228.000 C 273.530 228.000,275.213 226.189,306.841 194.559 C 324.527 176.872,339.202 162.400,339.450 162.400 C 339.699 162.400,340.141 162.688,340.434 163.040 M111.671 168.828 C 101.355 170.858,95.341 182.929,100.000 192.253 L 101.400 195.055 100.000 197.787 C 93.764 209.955,105.718 224.490,119.132 221.049 C 120.525 220.692,121.738 220.400,121.828 220.400 C 121.918 220.400,122.038 243.276,122.095 271.235 L 122.200 322.071 123.144 322.835 C 125.083 324.405,127.182 323.231,127.565 320.364 L 127.800 318.600 136.300 318.492 L 144.800 318.384 144.800 315.792 L 144.800 313.200 139.400 313.200 L 134.000 313.200 134.000 310.200 L 134.000 307.200 136.800 307.200 L 139.600 307.200 139.600 304.600 L 139.600 302.000 136.800 302.000 L 134.000 302.000 134.000 299.000 L 134.000 296.000 139.400 296.000 L 144.800 296.000 144.800 293.400 L 144.800 290.800 136.200 290.800 L 127.600 290.800 127.600 255.600 C 127.600 236.240,127.709 220.400,127.842 220.400 C 127.976 220.400,129.191 220.690,130.542 221.044 C 144.297 224.647,155.966 210.213,149.599 197.472 L 148.406 195.085 149.592 192.643 C 156.625 178.155,141.479 163.128,127.162 170.390 L 124.924 171.525 122.562 170.363 C 118.913 168.569,115.460 168.082,111.671 168.828 M315.729 170.722 C 316.346 171.404,315.490 172.334,300.264 187.522 C 283.796 203.948,283.675 204.055,282.778 202.973 C 282.311 202.411,313.823 170.000,314.836 170.000 C 314.968 170.000,315.370 170.325,315.729 170.722 M119.301 174.710 L 120.801 175.400 113.285 183.176 C 105.184 191.557,105.238 191.526,104.180 188.341 C 101.316 179.717,111.067 170.927,119.301 174.710 M138.674 174.530 C 144.771 176.778,148.088 185.356,144.810 190.400 C 144.454 190.949,129.200 176.435,129.200 175.547 C 129.200 174.316,136.087 173.577,138.674 174.530 M132.888 187.100 L 140.769 195.000 133.005 202.900 C 128.734 207.245,125.095 210.800,124.917 210.800 C 124.738 210.800,121.100 207.304,116.832 203.032 L 109.072 195.264 116.809 187.232 C 121.064 182.814,124.650 179.200,124.777 179.200 C 124.904 179.200,128.554 182.755,132.888 187.100 M332.569 187.724 C 333.006 188.415,301.665 220.400,300.551 220.400 C 300.302 220.400,299.864 220.118,299.578 219.773 C 299.036 219.120,330.879 186.626,331.770 186.923 C 331.975 186.992,332.335 187.352,332.569 187.724 M120.400 214.665 C 120.400 215.431,117.600 216.177,114.800 216.157 C 106.916 216.101,101.533 207.880,104.590 200.563 L 105.228 199.036 112.814 206.614 C 116.986 210.782,120.400 214.405,120.400 214.665 M145.362 201.071 C 148.214 209.440,141.019 217.919,132.654 216.047 C 128.211 215.053,128.078 215.365,136.596 206.820 C 145.235 198.153,144.527 198.618,145.362 201.071 M320.400 310.406 L 320.400 351.612 308.700 351.506 L 297.000 351.400 296.898 310.300 L 296.796 269.200 308.598 269.200 L 320.400 269.200 320.400 310.406 M320.063 354.387 C 318.907 366.072,301.408 367.248,297.566 355.899 C 296.451 352.607,295.827 352.774,308.745 352.894 L 320.200 353.000 320.063 354.387 " stroke="none" fill="#14bcb4" fill-rule="evenodd"></path><path id="path3" d="M306.807 194.593 C 276.159 225.243,274.649 226.820,275.315 227.486 C 276.202 228.373,340.667 164.362,340.176 163.081 C 339.674 161.774,338.787 162.612,306.807 194.593 M298.471 186.158 C 283.210 201.428,282.418 202.292,283.106 202.915 C 283.771 203.517,316.000 172.357,316.000 171.112 C 316.000 168.843,314.432 170.189,298.471 186.158 M315.279 202.921 C 299.916 218.287,299.196 219.073,299.897 219.707 C 300.925 220.637,333.310 188.497,332.422 187.427 C 332.136 187.082,331.788 186.800,331.649 186.800 C 331.510 186.800,324.144 194.054,315.279 202.921 " stroke="none" fill="#eef6f5" fill-rule="evenodd"></path><path id="path4" d="M202.700 29.496 C 204.075 29.574,206.325 29.574,207.700 29.496 C 209.075 29.418,207.950 29.354,205.200 29.354 C 202.450 29.354,201.325 29.418,202.700 29.496 M213.105 29.483 C 213.602 29.579,214.322 29.575,214.705 29.475 C 215.087 29.375,214.680 29.296,213.800 29.301 C 212.920 29.305,212.607 29.387,213.105 29.483 M183.105 29.883 C 183.602 29.979,184.322 29.975,184.705 29.875 C 185.087 29.775,184.680 29.696,183.800 29.701 C 182.920 29.705,182.607 29.787,183.105 29.883 M257.312 49.495 C 258.364 49.577,259.984 49.576,260.912 49.492 C 261.840 49.408,260.980 49.341,259.000 49.342 C 257.020 49.343,256.260 49.412,257.312 49.495 M229.712 49.895 C 230.764 49.977,232.384 49.976,233.312 49.892 C 234.240 49.808,233.380 49.741,231.400 49.742 C 229.420 49.743,228.660 49.812,229.712 49.895 M202.112 50.295 C 203.164 50.377,204.784 50.376,205.712 50.292 C 206.640 50.208,205.780 50.141,203.800 50.142 C 201.820 50.143,201.060 50.212,202.112 50.295 M174.300 50.693 C 175.235 50.777,176.765 50.777,177.700 50.693 C 178.635 50.609,177.870 50.540,176.000 50.540 C 174.130 50.540,173.365 50.609,174.300 50.693 M146.912 51.095 C 147.964 51.177,149.584 51.176,150.512 51.092 C 151.440 51.008,150.580 50.941,148.600 50.942 C 146.620 50.943,145.860 51.012,146.912 51.095 M119.100 51.493 C 120.035 51.577,121.565 51.577,122.500 51.493 C 123.435 51.409,122.670 51.340,120.800 51.340 C 118.930 51.340,118.165 51.409,119.100 51.493 M91.500 51.893 C 92.435 51.977,93.965 51.977,94.900 51.893 C 95.835 51.809,95.070 51.740,93.200 51.740 C 91.330 51.740,90.565 51.809,91.500 51.893 M163.712 53.895 C 164.764 53.977,166.384 53.976,167.312 53.892 C 168.240 53.808,167.380 53.741,165.400 53.742 C 163.420 53.743,162.660 53.812,163.712 53.895 M192.707 54.290 C 193.426 54.379,194.506 54.377,195.107 54.286 C 195.708 54.195,195.120 54.122,193.800 54.124 C 192.480 54.126,191.988 54.201,192.707 54.290 M219.111 54.693 C 220.051 54.778,221.491 54.777,222.311 54.691 C 223.130 54.605,222.360 54.536,220.600 54.537 C 218.840 54.539,218.170 54.609,219.111 54.693 M246.700 55.093 C 247.635 55.177,249.165 55.177,250.100 55.093 C 251.035 55.009,250.270 54.940,248.400 54.940 C 246.530 54.940,245.765 55.009,246.700 55.093 M178.705 74.683 C 179.202 74.779,179.922 74.775,180.305 74.675 C 180.687 74.575,180.280 74.496,179.400 74.501 C 178.520 74.505,178.207 74.587,178.705 74.683 M192.707 75.090 C 193.426 75.179,194.506 75.177,195.107 75.086 C 195.708 74.995,195.120 74.922,193.800 74.924 C 192.480 74.926,191.988 75.001,192.707 75.090 M262.500 104.700 C 287.745 104.757,329.055 104.757,354.300 104.700 C 379.545 104.643,358.890 104.597,308.400 104.597 C 257.910 104.597,237.255 104.643,262.500 104.700 M301.900 132.682 C 302.395 132.778,303.205 132.778,303.700 132.682 C 304.195 132.587,303.790 132.509,302.800 132.509 C 301.810 132.509,301.405 132.587,301.900 132.682 M313.505 132.683 C 314.002 132.779,314.722 132.775,315.105 132.675 C 315.487 132.575,315.080 132.496,314.200 132.501 C 313.320 132.505,313.007 132.587,313.505 132.683 M294.200 133.840 C 290.908 134.627,284.815 136.698,283.600 137.442 C 282.963 137.833,282.890 137.950,283.400 137.765 C 289.526 135.546,291.887 134.789,294.500 134.209 C 296.205 133.830,297.600 133.448,297.600 133.360 C 297.600 133.108,296.781 133.223,294.200 133.840 M323.400 134.383 C 325.820 135.001,328.970 135.960,330.400 136.513 C 334.160 137.967,334.744 138.134,333.440 137.381 C 331.196 136.086,321.411 133.152,319.600 133.232 C 319.270 133.247,320.980 133.764,323.400 134.383 M306.515 137.896 C 307.788 137.976,309.768 137.975,310.915 137.894 C 312.062 137.814,311.020 137.749,308.600 137.750 C 306.180 137.751,305.242 137.816,306.515 137.896 M301.105 138.283 C 301.602 138.379,302.322 138.375,302.705 138.275 C 303.087 138.175,302.680 138.096,301.800 138.101 C 300.920 138.105,300.607 138.187,301.105 138.283 M314.705 138.283 C 315.202 138.379,315.922 138.375,316.305 138.275 C 316.687 138.175,316.280 138.096,315.400 138.101 C 314.520 138.105,314.207 138.187,314.705 138.283 M335.633 138.551 C 336.042 138.921,339.200 140.395,339.200 140.216 C 339.200 139.989,336.181 138.400,335.749 138.400 C 335.594 138.400,335.542 138.468,335.633 138.551 M322.400 139.600 C 323.768 140.038,324.819 140.038,323.800 139.600 C 323.360 139.411,322.640 139.262,322.200 139.268 C 321.557 139.277,321.596 139.343,322.400 139.600 M341.000 141.407 C 341.440 141.766,342.160 142.235,342.600 142.451 L 343.400 142.844 342.600 142.193 C 342.160 141.834,341.440 141.365,341.000 141.149 L 340.200 140.756 341.000 141.407 M284.000 143.000 C 283.450 143.314,283.180 143.572,283.400 143.572 C 283.620 143.572,284.250 143.314,284.800 143.000 C 285.350 142.686,285.620 142.428,285.400 142.428 C 285.180 142.428,284.550 142.686,284.000 143.000 M331.633 142.553 C 332.041 142.927,337.600 145.589,337.600 145.410 C 337.600 145.187,332.178 142.400,331.743 142.400 C 331.591 142.400,331.542 142.469,331.633 142.553 M271.000 144.635 L 269.800 145.666 271.100 144.806 C 271.815 144.333,272.400 143.868,272.400 143.773 C 272.400 143.473,272.231 143.578,271.000 144.635 M280.700 144.629 C 279.205 145.440,279.296 145.778,280.800 145.000 C 281.460 144.659,282.000 144.294,282.000 144.190 C 282.000 143.932,281.957 143.947,280.700 144.629 M348.000 146.059 C 348.330 146.391,350.580 148.532,353.000 150.817 C 356.569 154.187,356.833 154.383,354.400 151.856 C 352.750 150.142,350.500 148.001,349.400 147.098 C 348.300 146.195,347.670 145.728,348.000 146.059 M338.800 146.124 C 338.800 146.217,339.565 146.798,340.500 147.415 C 341.435 148.032,341.989 148.280,341.731 147.968 C 341.234 147.367,338.800 145.836,338.800 146.124 M264.587 149.909 C 261.696 152.718,258.965 155.843,256.990 158.600 C 255.335 160.911,256.417 159.819,258.575 157.000 C 259.586 155.680,262.062 152.935,264.079 150.900 C 268.332 146.608,268.678 145.933,264.587 149.909 M273.185 149.629 L 271.800 150.858 273.300 149.781 C 274.626 148.830,275.057 148.400,274.685 148.400 C 274.622 148.400,273.947 148.953,273.185 149.629 M342.400 148.525 C 342.400 148.624,343.061 149.209,343.868 149.825 C 344.676 150.441,345.211 150.741,345.056 150.491 C 344.740 149.979,342.400 148.247,342.400 148.525 M267.297 154.735 C 265.154 156.900,262.800 159.555,262.067 160.635 L 260.733 162.600 262.050 161.000 C 262.774 160.120,265.253 157.465,267.560 155.100 C 269.867 152.735,271.628 150.800,271.474 150.800 C 271.320 150.800,269.441 152.571,267.297 154.735 M345.600 150.925 C 345.600 150.994,346.185 151.579,346.900 152.225 L 348.200 153.400 347.025 152.100 C 345.930 150.888,345.600 150.616,345.600 150.925 M349.600 154.600 C 350.346 155.370,351.047 156.000,351.157 156.000 C 351.267 156.000,350.746 155.370,350.000 154.600 C 349.254 153.830,348.553 153.200,348.443 153.200 C 348.333 153.200,348.854 153.830,349.600 154.600 M359.002 157.500 C 360.061 158.875,361.001 160.000,361.089 160.000 C 361.370 160.000,358.699 156.432,357.871 155.702 C 357.433 155.316,357.942 156.125,359.002 157.500 M352.997 158.500 C 354.072 159.765,355.023 160.800,355.110 160.800 C 355.383 160.800,352.929 157.836,351.964 157.000 C 351.456 156.560,351.921 157.235,352.997 158.500 M356.000 162.400 C 356.470 163.060,356.944 163.600,357.054 163.600 C 357.164 163.600,356.870 163.060,356.400 162.400 C 355.930 161.740,355.456 161.200,355.346 161.200 C 355.236 161.200,355.530 161.740,356.000 162.400 M362.631 162.600 C 363.030 163.260,364.217 165.420,365.270 167.400 C 366.323 169.380,367.188 170.842,367.192 170.648 C 367.205 170.088,363.643 163.501,362.732 162.400 L 361.905 161.400 362.631 162.600 M340.192 163.144 C 340.407 163.521,338.801 165.421,334.953 169.344 L 329.404 175.000 335.191 169.309 C 339.996 164.584,340.885 163.532,340.430 163.109 C 339.984 162.694,339.940 162.701,340.192 163.144 M253.000 164.800 C 252.659 165.460,252.469 166.000,252.579 166.000 C 252.689 166.000,253.059 165.460,253.400 164.800 C 253.741 164.140,253.931 163.600,253.821 163.600 C 253.711 163.600,253.341 164.140,253.000 164.800 M357.549 164.600 C 357.765 165.040,358.234 165.760,358.593 166.200 L 359.244 167.000 358.851 166.200 C 358.635 165.760,358.166 165.040,357.807 164.600 L 357.156 163.800 357.549 164.600 M256.380 169.640 C 255.702 170.983,255.214 172.147,255.294 172.228 C 255.375 172.308,256.015 171.210,256.717 169.787 C 257.418 168.364,257.907 167.200,257.802 167.200 C 257.697 167.200,257.057 168.298,256.380 169.640 M360.481 169.791 C 360.959 170.776,361.419 171.514,361.503 171.430 C 361.684 171.249,360.068 168.000,359.797 168.000 C 359.694 168.000,360.002 168.806,360.481 169.791 M103.616 172.661 C 101.726 174.360,99.186 178.025,99.222 179.000 C 99.231 179.220,99.705 178.501,100.276 177.402 C 100.847 176.304,102.373 174.369,103.668 173.102 C 106.502 170.328,106.475 170.091,103.616 172.661 M302.198 185.300 L 288.200 199.400 302.300 185.402 C 310.055 177.703,316.400 171.358,316.400 171.302 C 316.400 171.020,315.207 172.196,302.198 185.300 M368.229 174.000 C 368.376 174.550,368.664 175.270,368.867 175.600 C 369.125 176.017,369.157 175.895,368.971 175.200 C 368.824 174.650,368.536 173.930,368.333 173.600 C 368.075 173.183,368.043 173.305,368.229 174.000 M109.900 175.029 C 108.349 175.870,108.525 176.161,110.100 175.359 C 111.608 174.593,111.875 174.394,111.367 174.416 C 111.165 174.425,110.505 174.701,109.900 175.029 M119.100 174.888 C 119.595 175.127,120.000 175.485,120.000 175.685 C 120.000 175.884,120.204 175.921,120.454 175.767 C 120.913 175.483,119.419 174.415,118.600 174.441 C 118.380 174.448,118.605 174.649,119.100 174.888 M247.429 177.583 C 246.863 179.375,246.410 181.147,246.423 181.521 C 246.435 181.894,246.962 180.492,247.595 178.405 C 248.227 176.318,248.680 174.546,248.601 174.468 C 248.523 174.389,247.995 175.791,247.429 177.583 M362.833 174.800 C 362.815 174.910,363.152 175.900,363.582 177.000 C 364.011 178.100,364.366 178.730,364.371 178.400 C 364.379 177.833,362.901 174.375,362.833 174.800 M129.200 175.583 C 129.200 175.953,144.357 190.978,144.531 190.781 C 144.950 190.308,145.598 188.797,145.584 188.326 C 145.576 188.037,145.297 188.425,144.966 189.190 L 144.363 190.580 136.781 182.969 C 132.612 178.783,129.200 175.459,129.200 175.583 M319.597 184.700 L 310.200 194.200 319.700 184.803 C 328.528 176.071,329.380 175.200,329.097 175.200 C 329.040 175.200,324.765 179.475,319.597 184.700 M141.665 176.467 C 142.251 176.980,143.117 177.850,143.589 178.400 L 144.447 179.400 143.771 178.290 C 143.399 177.679,142.533 176.809,141.847 176.357 L 140.600 175.534 141.665 176.467 M106.922 177.300 C 105.648 178.640,103.997 181.574,104.004 182.484 C 104.006 182.768,104.432 182.088,104.951 180.974 C 105.470 179.859,106.477 178.284,107.189 177.474 C 108.788 175.653,108.602 175.532,106.922 177.300 M149.457 177.300 C 149.830 178.015,150.362 179.320,150.640 180.200 C 150.919 181.080,151.157 181.440,151.169 181.000 C 151.193 180.154,149.398 176.000,149.008 176.000 C 148.882 176.000,149.084 176.585,149.457 177.300 M121.391 182.500 L 118.200 185.800 121.503 182.607 L 124.806 179.413 132.903 187.407 L 141.000 195.400 133.004 187.300 C 128.606 182.845,124.912 179.200,124.794 179.200 C 124.677 179.200,123.145 180.685,121.391 182.500 M364.595 180.200 C 364.764 180.860,365.223 182.750,365.615 184.400 C 366.007 186.050,366.341 187.040,366.358 186.600 C 366.394 185.634,364.893 179.550,364.538 179.228 C 364.400 179.103,364.426 179.540,364.595 180.200 M110.400 185.800 C 105.339 190.875,105.500 190.768,104.888 189.500 C 104.649 189.005,104.442 188.791,104.427 189.024 C 104.259 191.648,105.525 191.037,110.479 186.100 C 113.183 183.405,115.304 181.200,115.191 181.200 C 115.079 181.200,112.923 183.270,110.400 185.800 M151.341 185.200 C 151.341 187.998,151.396 188.299,151.650 186.900 C 151.819 185.965,151.819 184.435,151.650 183.500 C 151.396 182.101,151.341 182.402,151.341 185.200 M245.600 185.200 C 245.335 186.769,245.200 188.134,245.300 188.233 C 245.399 188.332,245.693 187.126,245.953 185.553 C 246.213 183.979,246.348 182.615,246.253 182.520 C 246.159 182.425,245.865 183.631,245.600 185.200 M98.128 185.200 C 98.128 186.630,98.201 187.215,98.289 186.500 C 98.378 185.785,98.378 184.615,98.289 183.900 C 98.201 183.185,98.128 183.770,98.128 185.200 M103.628 185.033 C 103.644 186.115,103.804 187.360,103.985 187.800 C 104.178 188.270,104.226 187.527,104.102 186.000 C 103.848 182.855,103.589 182.329,103.628 185.033 M366.509 189.200 C 366.509 190.190,366.587 190.595,366.682 190.100 C 366.778 189.605,366.778 188.795,366.682 188.300 C 366.587 187.805,366.509 188.210,366.509 189.200 M316.598 204.500 L 300.600 220.600 316.700 204.602 C 331.664 189.733,332.980 188.400,332.698 188.400 C 332.642 188.400,325.397 195.645,316.598 204.500 M250.501 190.200 C 250.505 191.080,250.587 191.393,250.683 190.895 C 250.779 190.398,250.775 189.678,250.675 189.295 C 250.575 188.913,250.496 189.320,250.501 190.200 M244.914 191.400 C 244.917 192.500,244.995 192.903,245.087 192.295 C 245.179 191.686,245.177 190.786,245.082 190.295 C 244.987 189.803,244.911 190.300,244.914 191.400 M372.159 196.000 C 372.159 199.190,372.221 200.495,372.297 198.900 C 372.373 197.305,372.373 194.695,372.297 193.100 C 372.221 191.505,372.159 192.810,372.159 196.000 M366.886 195.241 C 366.838 197.574,366.717 200.634,366.615 202.041 L 366.430 204.600 366.820 202.200 C 367.035 200.880,367.157 197.820,367.091 195.400 L 366.971 191.000 366.886 195.241 M149.253 193.382 C 148.404 194.983,148.497 196.800,149.428 196.800 C 149.538 196.800,149.422 196.416,149.171 195.946 C 148.797 195.248,148.875 194.804,149.597 193.519 C 150.083 192.655,150.412 191.879,150.328 191.795 C 150.245 191.711,149.761 192.426,149.253 193.382 M250.134 196.000 C 250.134 197.650,250.205 198.325,250.291 197.500 C 250.378 196.675,250.378 195.325,250.291 194.500 C 250.205 193.675,250.134 194.350,250.134 196.000 M109.200 195.180 C 109.200 195.511,124.555 210.800,124.888 210.800 C 125.212 210.800,131.110 204.991,131.994 203.800 C 132.321 203.360,130.900 204.665,128.837 206.700 C 126.773 208.735,124.970 210.400,124.829 210.400 C 124.688 210.400,121.114 206.924,116.887 202.677 C 112.659 198.429,109.200 195.056,109.200 195.180 M244.914 200.600 C 244.917 201.700,244.995 202.103,245.087 201.495 C 245.179 200.886,245.177 199.986,245.082 199.495 C 244.987 199.003,244.911 199.500,244.914 200.600 M104.559 200.637 C 104.228 201.428,104.031 202.283,104.119 202.537 C 104.208 202.792,104.411 202.417,104.571 201.705 C 105.077 199.449,105.534 199.744,113.145 207.249 L 120.600 214.600 113.004 206.900 C 104.265 198.041,105.317 198.822,104.559 200.637 M136.596 206.820 C 129.415 214.023,129.042 214.472,129.776 215.020 C 130.204 215.339,130.744 215.588,130.976 215.573 C 131.209 215.558,131.004 215.354,130.519 215.120 C 129.691 214.720,130.061 214.257,136.719 207.352 C 143.282 200.545,144.800 199.252,144.800 200.467 C 144.800 200.723,144.894 200.839,145.009 200.724 C 145.270 200.463,144.809 199.200,144.453 199.200 C 144.310 199.200,140.774 202.629,136.596 206.820 M250.501 202.200 C 250.505 203.080,250.587 203.393,250.683 202.895 C 250.779 202.398,250.775 201.678,250.675 201.295 C 250.575 200.913,250.496 201.320,250.501 202.200 M295.596 208.700 L 288.200 216.200 295.700 208.804 C 299.825 204.736,303.200 201.361,303.200 201.304 C 303.200 201.019,302.468 201.732,295.596 208.700 M151.328 205.000 C 151.331 207.782,151.376 207.988,151.674 206.573 C 151.867 205.664,151.866 204.254,151.672 203.373 C 151.375 202.025,151.326 202.257,151.328 205.000 M98.124 205.000 C 98.126 206.320,98.201 206.812,98.290 206.093 C 98.379 205.374,98.377 204.294,98.286 203.693 C 98.195 203.092,98.122 203.680,98.124 205.000 M371.693 204.000 C 371.693 204.770,371.775 205.085,371.876 204.700 C 371.976 204.315,371.976 203.685,371.876 203.300 C 371.775 202.915,371.693 203.230,371.693 204.000 M103.714 205.000 C 103.717 206.100,103.795 206.503,103.887 205.895 C 103.979 205.286,103.977 204.386,103.882 203.895 C 103.787 203.403,103.711 203.900,103.714 205.000 M245.236 204.056 C 245.128 206.018,248.133 218.000,248.613 217.520 C 248.698 217.435,248.396 216.203,247.942 214.783 C 247.489 213.362,246.702 210.220,246.195 207.800 C 245.687 205.380,245.256 203.695,245.236 204.056 M365.666 207.400 C 365.376 208.940,364.544 212.000,363.816 214.200 C 363.087 216.400,362.543 218.257,362.607 218.328 C 363.081 218.853,366.521 206.841,366.310 205.400 C 366.245 204.960,365.955 205.860,365.666 207.400 M104.032 207.513 C 103.936 209.066,106.965 213.418,108.840 214.421 C 109.229 214.630,108.598 213.850,107.437 212.689 C 106.153 211.405,105.079 209.878,104.695 208.789 C 104.347 207.805,104.049 207.231,104.032 207.513 M144.496 210.149 C 144.257 210.673,143.470 211.799,142.746 212.651 C 141.639 213.954,141.606 214.042,142.540 213.207 C 143.751 212.124,145.400 209.667,145.111 209.377 C 145.011 209.278,144.735 209.625,144.496 210.149 M149.352 212.817 C 148.671 214.115,148.272 215.079,148.465 214.960 C 148.885 214.700,150.910 210.777,150.722 210.588 C 150.649 210.516,150.033 211.518,149.352 212.817 M99.211 211.000 C 99.190 213.394,107.803 221.931,109.015 220.718 C 109.091 220.643,108.206 220.085,107.049 219.479 C 104.423 218.104,101.999 215.660,100.425 212.800 C 99.759 211.590,99.213 210.780,99.211 211.000 M145.800 217.476 C 144.700 218.487,144.340 218.947,145.000 218.497 C 146.124 217.730,148.344 215.578,147.970 215.618 C 147.876 215.628,146.900 216.464,145.800 217.476 M114.305 216.283 C 114.802 216.379,115.522 216.375,115.905 216.275 C 116.287 216.175,115.880 216.096,115.000 216.101 C 114.120 216.105,113.807 216.187,114.305 216.283 M133.900 216.282 C 134.395 216.378,135.205 216.378,135.700 216.282 C 136.195 216.187,135.790 216.109,134.800 216.109 C 133.810 216.109,133.405 216.187,133.900 216.282 M368.044 218.444 C 367.798 219.151,367.666 219.800,367.752 219.885 C 367.838 219.971,368.109 219.462,368.356 218.756 C 368.602 218.049,368.734 217.400,368.648 217.315 C 368.562 217.229,368.291 217.738,368.044 218.444 M360.684 221.814 C 359.871 223.456,359.293 224.800,359.398 224.800 C 359.665 224.800,362.485 219.151,362.306 218.973 C 362.227 218.893,361.497 220.172,360.684 221.814 M249.228 219.400 C 249.228 219.620,249.486 220.250,249.800 220.800 C 250.114 221.350,250.372 221.620,250.372 221.400 C 250.372 221.180,250.114 220.550,249.800 220.000 C 249.486 219.450,249.228 219.180,249.228 219.400 M364.907 225.334 C 363.756 227.570,363.096 229.040,363.440 228.600 C 364.202 227.625,367.300 221.567,367.125 221.393 C 367.056 221.324,366.058 223.098,364.907 225.334 M114.105 221.887 C 114.714 221.979,115.614 221.977,116.105 221.882 C 116.597 221.787,116.100 221.711,115.000 221.714 C 113.900 221.717,113.497 221.795,114.105 221.887 M133.700 221.887 C 134.305 221.978,135.295 221.978,135.900 221.887 C 136.505 221.795,136.010 221.720,134.800 221.720 C 133.590 221.720,133.095 221.795,133.700 221.887 M250.800 222.947 C 250.800 223.380,252.788 227.200,253.013 227.200 C 253.123 227.200,252.739 226.255,252.159 225.100 C 251.043 222.879,250.800 222.494,250.800 222.947 M257.400 224.400 C 257.741 225.060,258.111 225.600,258.221 225.600 C 258.331 225.600,258.141 225.060,257.800 224.400 C 257.459 223.740,257.089 223.200,256.979 223.200 C 256.869 223.200,257.059 223.740,257.400 224.400 M356.585 228.900 C 355.968 229.835,355.720 230.389,356.032 230.131 C 356.633 229.634,358.164 227.200,357.876 227.200 C 357.783 227.200,357.202 227.965,356.585 228.900 M253.643 228.500 C 254.429 230.002,258.035 235.131,258.682 235.668 C 259.015 235.944,258.259 234.738,257.003 232.986 C 255.746 231.235,254.462 229.306,254.149 228.701 C 253.836 228.095,253.488 227.600,253.376 227.600 C 253.264 227.600,253.384 228.005,253.643 228.500 M261.274 230.485 C 263.245 233.323,269.723 240.012,272.400 241.972 C 273.914 243.081,273.850 242.987,272.000 241.381 C 268.437 238.288,263.696 233.278,261.745 230.544 C 260.747 229.145,259.844 228.000,259.739 228.000 C 259.635 228.000,260.325 229.118,261.274 230.485 M360.541 232.500 C 359.429 234.095,357.646 236.390,356.579 237.600 C 355.505 238.818,355.225 239.265,355.951 238.600 C 357.748 236.955,363.286 229.600,362.728 229.600 C 362.638 229.600,361.654 230.905,360.541 232.500 M353.755 232.681 C 352.907 233.716,352.422 234.434,352.677 234.276 C 353.221 233.940,355.755 230.800,355.482 230.800 C 355.380 230.800,354.603 231.647,353.755 232.681 M349.588 237.500 L 347.000 240.200 349.700 237.612 C 352.208 235.207,352.583 234.800,352.288 234.800 C 352.227 234.800,351.012 236.015,349.588 237.500 M260.706 238.200 C 261.598 239.300,263.020 240.829,263.864 241.598 L 265.400 242.996 263.768 241.198 C 262.871 240.209,261.449 238.680,260.609 237.800 L 259.082 236.200 260.706 238.200 M353.375 241.300 L 352.200 242.600 353.500 241.425 C 354.215 240.779,354.800 240.194,354.800 240.125 C 354.800 239.816,354.470 240.088,353.375 241.300 M349.400 244.677 C 347.968 246.014,347.645 246.425,348.600 245.698 C 350.109 244.549,352.339 242.378,351.970 242.418 C 351.876 242.428,350.720 243.445,349.400 244.677 M266.200 243.564 C 267.036 244.529,270.000 246.983,270.000 246.710 C 270.000 246.623,268.965 245.672,267.700 244.597 C 266.435 243.521,265.760 243.056,266.200 243.564 M270.400 246.946 C 270.400 247.056,270.940 247.530,271.600 248.000 C 272.260 248.470,272.800 248.764,272.800 248.654 C 272.800 248.544,272.260 248.070,271.600 247.600 C 270.940 247.130,270.400 246.836,270.400 246.946 M345.400 247.835 L 344.200 248.866 345.500 248.006 C 346.215 247.533,346.800 247.068,346.800 246.973 C 346.800 246.673,346.631 246.778,345.400 247.835 M280.800 247.397 C 280.800 247.668,284.049 249.284,284.230 249.103 C 284.314 249.019,283.576 248.559,282.591 248.081 C 281.606 247.602,280.800 247.294,280.800 247.397 M339.500 251.429 C 338.005 252.240,338.096 252.578,339.600 251.800 C 340.260 251.459,340.800 251.094,340.800 250.990 C 340.800 250.732,340.757 250.747,339.500 251.429 M277.200 251.379 C 277.200 251.489,277.740 251.859,278.400 252.200 C 279.060 252.541,279.600 252.731,279.600 252.621 C 279.600 252.511,279.060 252.141,278.400 251.800 C 277.740 251.459,277.200 251.269,277.200 251.379 M280.200 253.106 C 280.632 253.517,286.765 256.138,288.400 256.610 C 290.194 257.129,289.064 256.509,286.000 255.294 C 284.350 254.639,282.280 253.794,281.400 253.415 C 280.520 253.036,279.980 252.897,280.200 253.106 M300.100 253.876 C 300.485 253.976,301.115 253.976,301.500 253.876 C 301.885 253.775,301.570 253.693,300.800 253.693 C 300.030 253.693,299.715 253.775,300.100 253.876 M315.700 253.876 C 316.085 253.976,316.715 253.976,317.100 253.876 C 317.485 253.775,317.170 253.693,316.400 253.693 C 315.630 253.693,315.315 253.775,315.700 253.876 M333.400 254.430 C 332.520 254.851,330.000 255.756,327.800 256.441 C 322.078 258.222,321.488 258.442,323.200 258.159 C 325.201 257.829,332.507 255.373,334.291 254.432 C 336.213 253.417,335.519 253.416,333.400 254.430 M305.718 254.298 C 307.433 254.373,310.133 254.372,311.718 254.297 C 313.303 254.221,311.900 254.159,308.600 254.160 C 305.300 254.161,304.003 254.222,305.718 254.298 M291.009 257.361 C 291.893 257.656,293.243 258.004,294.009 258.135 C 295.335 258.362,295.325 258.349,293.791 257.839 C 292.907 257.544,291.557 257.196,290.791 257.065 C 289.465 256.838,289.475 256.851,291.009 257.361 M300.583 259.572 C 300.709 259.777,300.613 260.069,300.367 260.220 C 299.787 260.579,297.599 264.031,297.605 264.578 C 297.607 264.810,298.070 264.190,298.633 263.200 C 299.196 262.210,300.128 260.905,300.703 260.300 C 301.573 259.386,301.631 259.200,301.051 259.200 C 300.667 259.200,300.456 259.368,300.583 259.572 M315.600 259.325 C 315.600 259.394,316.184 259.979,316.899 260.625 C 317.953 261.579,318.028 261.607,317.295 260.770 C 316.799 260.204,316.514 259.619,316.663 259.470 C 316.812 259.322,316.633 259.200,316.267 259.200 C 315.900 259.200,315.600 259.256,315.600 259.325 M318.925 263.959 C 319.406 265.037,319.856 265.770,319.923 265.589 C 320.052 265.246,318.509 262.000,318.217 262.000 C 318.126 262.000,318.445 262.882,318.925 263.959 M297.077 266.300 C 296.959 266.905,296.995 267.538,297.157 267.706 C 297.702 268.271,320.120 267.866,320.237 267.290 C 320.294 267.010,320.249 266.964,320.137 267.190 C 320.005 267.456,315.934 267.600,308.577 267.600 L 297.220 267.600 297.460 266.400 C 297.592 265.740,297.608 265.200,297.497 265.200 C 297.385 265.200,297.196 265.695,297.077 266.300 M296.898 310.300 L 297.000 351.400 308.700 351.506 L 320.400 351.612 320.400 310.406 L 320.400 269.200 308.598 269.200 L 296.796 269.200 296.898 310.300 M320.000 310.400 L 320.000 351.200 308.600 351.200 L 297.200 351.200 297.200 310.400 L 297.200 269.600 308.600 269.600 L 320.000 269.600 320.000 310.400 M127.600 290.500 C 127.600 290.665,131.470 290.800,136.200 290.800 L 144.800 290.800 144.800 293.389 L 144.800 295.977 139.300 296.101 L 133.800 296.225 139.500 296.312 L 145.200 296.400 145.200 293.415 L 145.200 290.430 136.400 290.315 C 131.559 290.252,127.599 290.335,127.600 290.500 M135.300 301.891 C 136.125 301.978,137.475 301.978,138.300 301.891 C 139.125 301.805,138.450 301.734,136.800 301.734 C 135.150 301.734,134.475 301.805,135.300 301.891 M134.000 307.500 C 134.000 307.665,134.945 307.748,136.100 307.684 C 139.621 307.491,139.954 307.312,136.900 307.254 C 135.305 307.225,134.000 307.335,134.000 307.500 M139.300 313.099 L 144.800 313.223 144.800 315.803 L 144.800 318.384 136.300 318.500 L 127.800 318.617 136.500 318.708 L 145.200 318.800 145.200 315.800 L 145.200 312.800 139.500 312.888 L 133.800 312.975 139.300 313.099 M126.514 322.680 C 126.027 323.186,125.774 323.600,125.952 323.600 C 126.342 323.600,127.798 322.045,127.564 321.877 C 127.474 321.813,127.001 322.174,126.514 322.680 M297.112 353.294 C 297.014 353.572,297.075 354.250,297.248 354.800 C 297.544 355.743,297.557 355.732,297.481 354.600 L 297.400 353.400 308.351 353.293 C 316.727 353.212,319.447 353.306,319.916 353.693 C 320.424 354.112,320.496 354.096,320.332 353.600 C 320.060 352.776,297.399 352.478,297.112 353.294 M297.600 356.153 C 297.600 356.582,298.790 358.800,299.021 358.800 C 299.131 358.800,298.923 358.215,298.559 357.500 C 297.817 356.040,297.600 355.736,297.600 356.153 M316.824 360.118 C 315.143 362.089,315.129 362.125,316.557 360.800 C 317.823 359.626,319.118 357.954,318.714 358.018 C 318.651 358.028,317.801 358.973,316.824 360.118 M300.400 360.600 C 301.146 361.370,301.847 362.000,301.957 362.000 C 302.067 362.000,301.546 361.370,300.800 360.600 C 300.054 359.830,299.353 359.200,299.243 359.200 C 299.133 359.200,299.654 359.830,300.400 360.600 M307.091 363.889 C 307.801 363.977,309.061 363.979,309.891 363.892 C 310.721 363.805,310.140 363.733,308.600 363.731 C 307.060 363.729,306.381 363.800,307.091 363.889 " stroke="none" fill="#619b97" fill-rule="evenodd"></path></g></svg>